<svg width="72" height="72" viewBox="0 0 72 72" fill="none" xmlns="http://www.w3.org/2000/svg">
<path d="M63 9V8H64V9H63ZM33.7071 39.7071C33.3166 40.0976 32.6834 40.0976 32.2929 39.7071C31.9024 39.3166 31.9024 38.6834 32.2929 38.2929L33 39L33.7071 39.7071ZM63 33H62V9H63H64V33H63ZM63 9V10H39V9V8H63V9ZM63 9L63.7071 9.70711L33.7071 39.7071L33 39L32.2929 38.2929L62.2929 8.29289L63 9Z" fill="#33363F"/>
<path d="M60 45V54C60 56.8284 60 58.2426 59.1213 59.1213C58.2426 60 56.8284 60 54 60H18C15.1716 60 13.7574 60 12.8787 59.1213C12 58.2426 12 56.8284 12 54V18C12 15.1716 12 13.7574 12.8787 12.8787C13.7574 12 15.1716 12 18 12H27" stroke="#33363F" stroke-width="2" stroke-linecap="round"/>
</svg>
