<svg width="393" height="507" viewBox="0 0 393 507" fill="none" xmlns="http://www.w3.org/2000/svg">
<path d="M149 0L109 173H182L149 0Z" fill="black"/>
<path d="M357.822 133.141L188 185L224.5 248.22L357.822 133.141Z" fill="black"/>
<path d="M393 258.5L220 218.5L220 291.5L393 258.5Z" fill="black"/>
<path d="M266.141 33.5L145 163.322L208.22 199.822L266.141 33.5Z" fill="black"/>
<path d="M19.3102 32L140.451 161.822L77.2313 198.322L19.3102 32Z" fill="black"/>
<path d="M-100.965 262.715L72.0352 222.715L72.0352 295.715L-100.965 262.715Z" fill="black"/>
<path d="M-65.3867 119.582L104.436 171.441L67.9357 234.661L-65.3867 119.582Z" fill="black"/>
<path d="M-20.7157 427.406L73.3295 276.792L124.948 328.411L-20.7157 427.406Z" fill="black"/>
<path d="M221.089 480.921L137.676 324.168L208.189 305.274L221.089 480.921Z" fill="black"/>
<path d="M334.605 417.153L183.992 323.108L235.61 271.489L334.605 417.153Z" fill="black"/>
<path d="M85.8035 486.549L91.9422 309.091L162.455 327.985L85.8035 486.549Z" fill="black"/>
</svg>
